<?xml version="1.0" encoding="UTF-8"?>
<svg width="49px" height="47px" viewBox="0 0 49 47" version="1.1" xmlns="http://www.w3.org/2000/svg" xmlns:xlink="http://www.w3.org/1999/xlink">
    <!-- Generator: Sketch 56.2 (81672) - https://sketch.com -->
    <title>feature-plumber</title>
    <desc>Created with Sketch.</desc>
    <g id="Web-Design" stroke="none" stroke-width="1" fill="none" fill-rule="evenodd">
        <g id="Landing-Page" transform="translate(-695.000000, -1153.000000)" fill="#46CAB5" fill-rule="nonzero">
            <g id="feature-plumber" transform="translate(695.000000, 1153.000000)">
                <path d="M45.9078958,43.3176522 C45.9078958,41.2803043 42.1941042,35.5861522 42.1941042,35.5861522 C42.1941042,35.5861522 38.4241667,41.2803043 38.4241667,43.3176522 C38.4241667,45.350913 40.100375,47 42.1665417,47 C44.2316875,47 45.9078958,45.350913 45.9078958,43.3176522 Z M19.054875,11.4138478 L11.5711458,11.4138478 L11.5711458,4.02973913 L13.6117917,4.02973913 L13.6117917,0 L0,0 L0,4.02973913 L2.04166667,4.02973913 L2.04166667,15.4425652 C2.04166667,18.4096957 4.47941667,20.8138478 7.48577083,20.8138478 L19.054875,20.8138478 L19.054875,22.8287174 L23.1392292,22.8287174 L23.1392292,9.40102174 L19.054875,9.40102174 L19.054875,11.4138478 Z M46.9562917,28.1989783 L46.9562917,16.7861522 C46.9562917,13.8200435 44.5195625,11.4148696 41.5162708,11.4148696 L29.945125,11.4148696 L29.945125,9.40204348 L25.8607708,9.40204348 L25.8607708,22.8307609 L29.945125,22.8307609 L29.945125,20.8148696 L37.429875,20.8148696 L37.429875,28.1989783 L35.3912708,28.1989783 L35.3912708,32.2287174 L49,32.2287174 L49,28.1989783 L46.9562917,28.1989783 L46.9562917,28.1989783 Z" id="plumber"></path>
            </g>
        </g>
    </g>
</svg>