<?xml version="1.0" encoding="UTF-8"?>
<svg width="45px" height="47px" viewBox="0 0 45 47" version="1.1" xmlns="http://www.w3.org/2000/svg" xmlns:xlink="http://www.w3.org/1999/xlink">
    <!-- Generator: Sketch 56.2 (81672) - https://sketch.com -->
    <title>feature-pest</title>
    <desc>Created with Sketch.</desc>
    <g id="Web-Design" stroke="none" stroke-width="1" fill="none" fill-rule="evenodd">
        <g id="Landing-Page" transform="translate(-698.000000, -1488.000000)" fill="#B7875B" fill-rule="nonzero" stroke="#B7875B" stroke-width="0.3">
            <g id="feature-pest" transform="translate(698.000000, 1488.000000)">
                <path d="M11.8923611,11.6684028 L14.7482639,11.6684028 C14.9726562,11.6684028 15.15625,11.484809 15.15625,11.2604167 C15.15625,9.8171658 15.4571398,8.54730903 16.0283203,7.51204427 C16.5689019,6.52267795 17.3542752,5.73730469 18.3436415,5.19672309 C19.3840061,4.63064236 20.648763,4.32465278 22.0920139,4.32465278 L22.9079861,4.32465278 C24.351237,4.32465278 25.6210938,4.62554253 26.6563585,5.19672309 C27.6457248,5.73730469 28.4310981,6.52267795 28.9716797,7.51204427 C29.5377604,8.55240885 29.84375,9.8171658 29.84375,11.2604167 C29.84375,11.484809 30.0273438,11.6684028 30.2517361,11.6684028 L33.1076389,11.6684028 C33.3320312,11.6684028 33.515625,11.484809 33.515625,11.2604167 C33.515625,9.22048611 33.0668403,7.34884983 32.19477,5.74750434 C31.3175998,4.14105903 30.0273438,2.85080295 28.4208984,1.97363281 C26.819553,1.1015625 24.9479167,0.652777778 22.9079861,0.652777778 L22.0920139,0.652777778 C20.0520833,0.652777778 18.180447,1.1015625 16.5791016,1.97363281 C14.9726562,2.85080295 13.6824002,4.14105903 12.80523,5.74750434 C11.9331597,7.34884983 11.484375,9.22048611 11.484375,11.2604167 C11.484375,11.484809 11.6679688,11.6684028 11.8923611,11.6684028 Z" id="Icon-Shape"></path>
                <path d="M44.3272569,23.5 L36.7795139,23.5 L36.7795139,18.4001736 C40.6961806,18.4001736 43.8682726,15.2280816 43.8682726,11.3114149 C43.8682726,11.0870226 43.6846788,10.9034288 43.4602865,10.9034288 L40.4003906,10.9034288 C40.1759983,10.9034288 39.9924045,11.0870226 39.9924045,11.3114149 C39.9924045,13.0861545 38.5542535,14.5243056 36.7795139,14.5243056 L8.22048611,14.5243056 C6.44574653,14.5243056 5.00759549,13.0861545 5.00759549,11.3114149 C5.00759549,11.0870226 4.82400174,10.9034288 4.59960938,10.9034288 L1.53971354,10.9034288 C1.31532118,10.9034288 1.13172743,11.0870226 1.13172743,11.3114149 C1.13172743,15.2280816 4.30381944,18.4001736 8.22048611,18.4001736 L8.22048611,23.5 L0.672743056,23.5 C0.448350694,23.5 0.264756944,23.6835937 0.264756944,23.9079861 L0.264756944,26.7638889 C0.264756944,26.9882812 0.448350694,27.171875 0.672743056,27.171875 L8.22048611,27.171875 L8.22048611,32.0677083 C8.22048611,32.399197 8.23068576,32.7306858 8.2561849,33.0519748 C4.75770399,34.546224 2.3046875,38.0192057 2.3046875,42.0633681 C2.3046875,42.2877604 2.48828125,42.4713542 2.71267361,42.4713542 L5.56857639,42.4713542 C5.79296875,42.4713542 5.9765625,42.2877604 5.9765625,42.0633681 C5.9765625,39.8092448 7.19542101,37.835612 9.01605903,36.7748481 C9.32204861,37.6520182 9.70963542,38.4883898 10.1737196,39.273763 C11.4129774,41.390191 13.1826172,43.1598307 15.2990451,44.3990885 C17.4154731,45.6383464 19.8735894,46.3472222 22.5,46.3472222 C25.1264106,46.3472222 27.5896267,45.6383464 29.7060547,44.3990885 C31.8224826,43.1598307 33.5921224,41.390191 34.8313802,39.273763 C35.2954644,38.4832899 35.6830512,37.6469184 35.9890408,36.7748481 C37.804579,37.835612 39.0234375,39.8092448 39.0234375,42.0633681 C39.0234375,42.2877604 39.2070313,42.4713542 39.4314236,42.4713542 L42.2873264,42.4713542 C42.5117188,42.4713542 42.6953125,42.2877604 42.6953125,42.0633681 C42.6953125,38.0192057 40.242296,34.546224 36.7438151,33.0519748 C36.7642144,32.7255859 36.7795139,32.399197 36.7795139,32.0677083 L36.7795139,27.171875 L44.3272569,27.171875 C44.5516493,27.171875 44.7352431,26.9882812 44.7352431,26.7638889 L44.7352431,23.9079861 C44.7352431,23.6835937 44.5516493,23.5 44.3272569,23.5 Z M32.9036458,32.0677083 C32.9036458,33.9444444 32.4089627,35.7395833 31.4858941,37.3154297 C30.5832248,38.8606771 29.2929688,40.1509332 27.7477214,41.0536024 C26.171875,41.976671 24.3767361,42.4713542 22.5,42.4713542 C20.6232639,42.4713542 18.828125,41.976671 17.2522786,41.0536024 C15.7070313,40.1509332 14.4167752,38.8606771 13.5141059,37.3154297 C12.5910373,35.7395833 12.0963542,33.9444444 12.0963542,32.0677083 L12.0963542,18.4001736 L32.9036458,18.4001736 L32.9036458,32.0677083 Z" id="Icon-Shape"></path>
            </g>
        </g>
    </g>
</svg>