<?xml version="1.0" encoding="UTF-8"?>
<svg width="56px" height="47px" viewBox="0 0 56 47" version="1.1" xmlns="http://www.w3.org/2000/svg" xmlns:xlink="http://www.w3.org/1999/xlink">
    <!-- Generator: Sketch 56.2 (81672) - https://sketch.com -->
    <title>feature-breakdown</title>
    <desc>Created with Sketch.</desc>
    <g id="Web-Design" stroke="none" stroke-width="1" fill="none" fill-rule="evenodd">
        <g id="Landing-Page" transform="translate(-311.000000, -1488.000000)" fill="#F8B61C" fill-rule="nonzero">
            <g id="feature-breakdown" transform="translate(311.000000, 1488.000000)">
                <path d="M48.6386286,24.245903 L47.4029284,17.8773347 C46.7235461,14.2946948 43.6229162,11.6953488 40.0312936,11.6953488 L32.8025314,11.6842479 C32.801267,11.6842479 32.8004242,11.6842479 32.7991598,11.6842479 C32.2276695,11.6842479 31.6789377,11.9143804 31.2743428,12.3234103 C30.8693264,12.733294 30.6413203,13.2900527 30.6413203,13.8702944 L30.6413203,25.0238281 L26.3256414,25.0246821 L26.3256414,17.1822402 C26.3256414,16.7057504 26.1718111,16.2420694 25.8873303,15.8616461 L14.6665651,0.865452426 C14.2585986,0.320221712 13.6222044,0 12.9470368,0 L6.47351838,0 C5.28164924,0 4.31567892,0.978597384 4.31567892,2.18604651 L4.31567892,7.02651705 C4.31567892,9.09301414 5.52609199,11.0126362 7.39902921,11.9165153 C8.20611177,12.3059049 8.6878326,13.1444585 8.62587898,14.0521802 C8.55381048,15.1123274 7.67760963,15.9999818 6.63114186,16.0729923 C6.02214217,16.1152616 5.4434872,15.9090389 5.00180444,15.4910428 C4.55927871,15.07262 4.31567892,14.5047602 4.31567892,13.8924963 C4.31567892,12.6850473 3.3497086,11.7064498 2.15783946,11.7064498 C0.965970321,11.7064498 0,12.6850473 0,13.8924963 C0,15.7036701 0.749764949,17.4512264 2.05711216,18.687282 C3.36361652,19.9229107 5.13919807,20.5599382 6.92826621,20.4344113 C10.1296234,20.2111101 12.7106016,17.5963935 12.931443,14.3527616 C13.1160394,11.6419786 11.6729843,9.13613741 9.25510831,7.96924961 C8.87032173,7.78394807 8.63135784,7.42231105 8.63135784,7.02651705 L8.63135784,4.37209302 L11.8748603,4.37209302 L22.0099625,17.9174691 L22.0099625,25.0255359 L2.15741803,25.0302326 C0.965970321,25.0306595 0,26.0092569 0,27.2162791 L0,33.8837209 C0,38.6477653 3.78043353,42.5314136 8.46151225,42.6236374 C9.3511996,45.1700399 11.7505316,47 14.5654164,47 C17.3786153,47 19.7771044,45.1721748 20.6676347,42.627907 L25.6782896,42.627907 C26.8701587,42.627907 27.836129,41.6493096 27.836129,40.4418605 C27.836129,39.2344113 26.8701587,38.255814 25.6782896,38.255814 L20.6676347,38.255814 C19.7771044,35.7115461 17.3786153,33.8837209 14.5654164,33.8837209 C11.7539032,33.8837209 9.35667846,35.7094113 8.46446244,38.2515444 C6.16206457,38.1623092 4.31567892,36.2379905 4.31567892,33.8837209 L4.31567892,29.4018986 L49.4579333,29.3916516 C50.3539424,30.1537791 50.9250113,31.2963299 50.9250113,32.572093 L50.9250113,38.255814 L46.2380322,38.255814 C45.347502,35.7115461 42.9490129,33.8837209 40.135814,33.8837209 C36.5661068,33.8837209 33.6622956,36.8254905 33.6622956,40.4418605 C33.6622956,44.0582304 36.5661068,47 40.135814,47 C42.9490129,47 45.347502,45.1721748 46.2380322,42.627907 L53.0828507,42.627907 C54.2747199,42.627907 55.2406902,41.6493096 55.2406902,40.4418605 L55.2406902,32.572093 C55.2406902,28.5018623 52.4102117,25.0882994 48.6386286,24.245903 Z M14.5654164,38.255814 C15.7551783,38.255814 16.7232558,39.2365461 16.7232558,40.4418605 C16.7232558,41.6471748 15.7551783,42.627907 14.5654164,42.627907 C13.3756545,42.627907 12.4075769,41.6471748 12.4075769,40.4418605 C12.4075769,39.2365461 13.3756545,38.255814 14.5654164,38.255814 Z M40.135814,42.627907 C38.9460521,42.627907 37.9779745,41.6471748 37.9779745,40.4418605 C37.9779745,39.2365461 38.9460521,38.255814 40.135814,38.255814 C41.3255759,38.255814 42.2936534,39.2365461 42.2936534,40.4418605 C42.2936534,41.6471748 41.3255759,42.627907 40.135814,42.627907 Z M34.9569992,16.0597566 L40.027922,16.0674419 C41.557375,16.0674419 42.8769444,17.1766897 43.1656397,18.7052143 C43.1660612,18.7090571 43.1669041,18.7124728 43.1677469,18.7163154 L44.3908036,25.0204124 L34.9569992,25.0225473 L34.9569992,16.0597566 Z" id="Shape"></path>
            </g>
        </g>
    </g>
</svg>