<?xml version="1.0" encoding="UTF-8"?>
<svg width="48px" height="45px" viewBox="0 0 48 45" version="1.1" xmlns="http://www.w3.org/2000/svg" xmlns:xlink="http://www.w3.org/1999/xlink">
    <!-- Generator: Sketch 56.2 (81672) - https://sketch.com -->
    <title>feature-handyman</title>
    <desc>Created with Sketch.</desc>
    <g id="Web-Design" stroke="none" stroke-width="1" fill="none" fill-rule="evenodd">
        <g id="Landing-Page" transform="translate(-1077.000000, -1490.000000)" fill="#B15AFE" fill-rule="nonzero">
            <g id="feature-handyman" transform="translate(1077.000000, 1490.000000)">
                <path d="M43.8898686,14.0443519 L44.2101105,13.7335752 C44.3423318,13.6083016 44.4172259,13.4341719 44.4172259,13.2520292 C44.4172259,13.0698865 44.3423318,12.8957569 44.2101105,12.7704832 L36.6867922,5.48774074 C36.407648,5.22030322 35.9673497,5.22030322 35.6882054,5.48774074 C35.6882054,5.48774074 34.1272234,6.37826562 33.8440538,4.03876447 C33.7312593,3.0977581 33.5182905,2.50933333 33.238276,2.17331597 C33.20357,2.13466609 31.6520532,0.613911458 31.6520532,0.613911458 C31.3725855,0.347280574 30.9329342,0.347280574 30.6534664,0.613911458 L25.0224149,6.06591146 C24.8903167,6.19157756 24.8155393,6.36592259 24.8155393,6.54824624 C24.8155393,6.73056988 24.8903167,6.90491492 25.0224149,7.03058102 C25.0224149,7.03058102 26.5928623,8.53319387 26.6338785,8.56474479 C26.9801499,8.83687153 27.5875052,9.04274132 28.5608513,9.15159201 C30.9776522,9.42608507 30.0563652,10.9357969 30.0563652,10.9357969 C29.9241801,11.0617396 29.8493713,11.2363432 29.8493713,11.4189204 C29.8493713,11.6014977 29.9241801,11.7761013 30.0563652,11.902044 L31.6883368,13.4819566 L27.4628791,17.5717454 L26.8373819,16.9659676 C26.8373819,16.9659676 24.615408,18.3439543 22.1741551,20.7086962 C19.4773397,23.3179578 17.9660503,26.7656852 14.4078947,30.20868 C9.05764641,35.3869757 6.45469502,36.5606701 4.29740046,38.1232297 C3.48338657,38.7108657 3.55989757,38.803941 4.30528819,39.5256684 L6.62428125,41.7720943 L8.94327431,44.0169427 C9.68866493,44.7363038 9.78568403,44.8104485 10.3946169,44.0248304 C12.007658,41.9377367 13.3178102,39.5122593 18.6680584,34.3315972 C22.2254253,30.89018 25.7898912,29.426217 28.4835515,26.8169554 C30.9255932,24.4530023 32.3501175,22.3028067 32.3501175,22.3028067 L31.7246204,21.6962402 L35.9477118,17.6064514 L37.5796834,19.1871528 C37.8593622,19.4523404 38.2978546,19.4516466 38.5766927,19.1855752 L38.8235787,18.946577 C40.2670336,20.1257928 44.9207951,24.3993657 43.4489444,29.3891447 C43.2478073,30.0714334 42.9007471,30.6795775 43.0782211,30.8523189 C43.3203744,31.0850069 44.2463941,30.191327 44.7859149,29.6652153 C51.6403536,22.9811516 45.2520799,15.490173 43.8898686,14.0443519" id="Icon-Shape"></path>
                <path d="M31.1582812,26.008463 C30.5370599,26.6972847 29.8930639,27.3652201 29.2273646,28.011158 C28.2169462,28.9892367 27.1087199,29.8411117 25.9350255,30.6685347 L37.1079971,41.8249421 C37.7931947,42.5020869 38.8956034,42.5020869 39.5808009,41.8249421 L42.0536047,39.3560822 C42.7350326,38.6741891 42.7350326,37.5691153 42.0536047,36.8872222 L31.1582812,26.008463" id="Icon-Shape"></path>
                <path d="M8.92355498,20.4326256 L12.3034479,17.0582541 L18.5229242,23.268265 C19.3464034,22.1813356 20.1974896,21.1527755 21.1692581,20.2125579 C21.8784448,19.5263871 22.6116732,18.8655081 23.3675689,18.2311597 L17.247478,12.1213229 L20.6257934,8.74852894 C20.9575685,8.41738038 21.1440106,7.96787032 21.1440106,7.49911227 C21.1440106,7.03035422 20.9575685,6.58084416 20.6257934,6.2496956 L15.2999971,0.931787037 C14.6067354,0.24347423 13.4881926,0.242770079 12.7940648,0.930209491 L9.41732697,4.30300347 L8.11190741,2.99995023 C7.42758713,2.3220336 6.32507733,2.32133002 5.63989236,2.99837269 L3.16787731,5.46881019 C2.48836683,6.15088044 2.48836683,7.25402233 3.16787731,7.93609259 L4.47329687,9.23914583 L1.09340394,12.6135174 C0.40617093,13.3053242 0.40617093,14.4221214 1.09340394,15.1139282 L6.4231441,20.4326256 C7.1151283,21.1194282 8.23157078,21.1194282 8.92355498,20.4326256" id="Icon-Shape"></path>
            </g>
        </g>
    </g>
</svg>