<?xml version="1.0" encoding="UTF-8"?>
<svg width="47px" height="47px" viewBox="0 0 47 47" version="1.1" xmlns="http://www.w3.org/2000/svg" xmlns:xlink="http://www.w3.org/1999/xlink">
    <!-- Generator: Sketch 56.2 (81672) - https://sketch.com -->
    <title>feature-puncture</title>
    <desc>Created with Sketch.</desc>
    <g id="Web-Design" stroke="none" stroke-width="1" fill="none" fill-rule="evenodd">
        <g id="Landing-Page" transform="translate(-1078.000000, -1153.000000)" fill="#4A90E2" fill-rule="nonzero">
            <g id="feature-puncture" transform="translate(1078.000000, 1153.000000)">
                <path d="M23.4570549,0 C10.5228392,0 0,10.5226549 0,23.4568706 C0,36.3910863 10.5228392,46.9137412 23.4570549,46.9137412 C36.3910863,46.9137412 46.9139255,36.3910863 46.9139255,23.4568706 C46.9139255,10.5226549 36.390902,0 23.4570549,0 Z M23.4570549,40.1169882 C14.2557451,40.1169882 6.79675294,32.6581804 6.79675294,23.4568706 C6.79675294,14.2555608 14.2557451,6.79675294 23.4570549,6.79675294 C32.6579961,6.79675294 40.1171725,14.2555608 40.1171725,23.4568706 C40.1171725,32.6581804 32.6578118,40.1169882 23.4570549,40.1169882 Z" id="Shape"></path>
                <path d="M23.4570549,8.95359216 C15.4596824,8.95359216 8.95359216,15.4596824 8.95359216,23.4568706 C8.95359216,31.4540588 15.4598667,37.960149 23.4570549,37.960149 C31.4542431,37.960149 37.9603333,31.4540588 37.9603333,23.4568706 C37.9603333,15.4596824 31.4540588,8.95359216 23.4570549,8.95359216 Z M36.1030039,22.5321686 L29.0659059,22.5321686 C28.9221412,21.6428549 28.5708392,20.8226588 28.0641608,20.1215294 L33.0321529,15.1535373 C34.7761294,17.1618196 35.8989686,19.7208314 36.1030039,22.5321686 Z M24.3670118,10.8096314 C27.1766902,11.0099804 29.7347804,12.1285804 31.7441686,13.8675804 L26.7772824,18.834651 C26.0761529,18.3281569 25.2561412,17.9770392 24.3670118,17.8332745 L24.3670118,10.8096314 Z M22.5469137,10.8096314 L22.5469137,17.8330902 C21.6577843,17.9768549 20.8375882,18.3279725 20.1364588,18.834651 L15.1693882,13.8677647 C17.1787765,12.1287647 19.7372353,11.0099804 22.5469137,10.8096314 Z M13.8812196,15.1537216 L18.8493961,20.1217137 C18.3427176,20.8226588 17.9916,21.6428549 17.8478353,22.5319843 L10.8107373,22.5319843 C11.0147725,19.7208314 12.1376118,17.1620039 13.8812196,15.1537216 Z M10.8087098,24.3520824 L17.8480196,24.3520824 C17.9916,25.2412118 18.342902,26.0614078 18.8495804,26.7625373 L13.8677647,31.7443529 C12.1256314,29.7312784 11.0061098,27.1674745 10.8087098,24.3520824 Z M22.5469137,36.1041098 C19.7296784,35.9032078 17.1655059,34.7792627 15.1535373,33.0323373 L20.1364588,28.0494157 C20.8375882,28.5560941 21.6577843,28.9072118 22.5469137,29.0509765 L22.5469137,36.1041098 Z M22.5469137,27.1787176 L22.5469137,27.1919882 C22.1541412,27.0965137 21.7855137,26.9413216 21.4496941,26.7359961 L21.4583569,26.7273333 C20.9330627,26.4069961 20.4918157,25.965749 20.1714784,25.4402706 L20.163,25.448749 C19.9576745,25.1129294 19.8024824,24.7444863 19.7070078,24.3517137 L19.7200941,24.3517137 C19.6491333,24.0595765 19.6074784,23.7558275 19.6074784,23.4417569 C19.6074784,23.1276863 19.6493176,22.8239373 19.7200941,22.5318 L19.7070078,22.5318 C19.8024824,22.1392118 19.9574902,21.7707686 20.163,21.434949 L20.1714784,21.4434275 C20.4918157,20.9181333 20.9332471,20.476702 21.4583569,20.156549 L21.4496941,20.1478863 C21.7855137,19.9425608 22.1541412,19.7871843 22.5469137,19.6918941 L22.5469137,19.7051647 C22.8392353,19.6342039 23.1428,19.5923647 23.4570549,19.5923647 C23.7713098,19.5923647 24.0748745,19.6342039 24.3671961,19.7051647 L24.3671961,19.6918941 C24.7599686,19.7873686 25.1284118,19.9423765 25.4640471,20.147702 L25.4553843,20.1563647 C25.9808627,20.4765176 26.4221098,20.917949 26.7424471,21.4432431 L26.7509255,21.4347647 C26.9564353,21.7705843 27.1116275,22.1392118 27.207102,22.5319843 L27.1940157,22.5319843 C27.2649765,22.8241216 27.3066314,23.1278706 27.3066314,23.4419412 C27.3066314,23.7560118 27.2647922,24.0597608 27.1940157,24.351898 L27.207102,24.351898 C27.1116275,24.7446706 26.9566196,25.113298 26.7509255,25.4491176 L26.7424471,25.4406392 C26.4221098,25.9659333 25.9806784,26.4071804 25.4553843,26.7275176 L25.4640471,26.7359961 C25.1284118,26.9413216 24.7599686,27.0965137 24.3671961,27.1919882 L24.3671961,27.1787176 C24.0748745,27.2496784 23.7713098,27.2915176 23.4570549,27.2915176 C23.1428,27.2915176 22.8392353,27.2498627 22.5469137,27.1787176 Z M24.3670118,36.1041098 L24.3670118,29.0509765 C25.2561412,28.9072118 26.0761529,28.5560941 26.7772824,28.0496 L31.7600196,33.0323373 C29.7482353,34.7792627 27.1840627,35.9032078 24.3670118,36.1041098 Z M33.0459765,31.7443529 L28.0643451,26.7627216 C28.5710235,26.0615922 28.9221412,25.2413961 29.0660902,24.3520824 L36.1052157,24.3520824 C35.9076314,27.1674745 34.7882941,29.7312784 33.0459765,31.7443529 Z" id="Shape"></path>
            </g>
        </g>
    </g>
</svg>