<?xml version="1.0" encoding="UTF-8"?>
<svg width="35px" height="47px" viewBox="0 0 35 47" version="1.1" xmlns="http://www.w3.org/2000/svg" xmlns:xlink="http://www.w3.org/1999/xlink">
    <!-- Generator: Sketch 56.2 (81672) - https://sketch.com -->
    <title>feature-locksmith</title>
    <desc>Created with Sketch.</desc>
    <g id="Web-Design" stroke="none" stroke-width="1" fill="none" fill-rule="evenodd">
        <g id="Landing-Page" transform="translate(-322.000000, -1153.000000)" fill="#F66380" fill-rule="nonzero">
            <g id="feature-locksmith" transform="translate(322.000000, 1153.000000)">
                <path d="M17.5,35.8095238 C19.90625,35.8095238 21.875,33.7952381 21.875,31.3333333 C21.875,28.8714286 19.90625,26.8571429 17.5,26.8571429 C15.09375,26.8571429 13.125,28.8714286 13.125,31.3333333 C13.125,33.7952381 15.09375,35.8095238 17.5,35.8095238 Z M30.625,15.6666667 L28.4375,15.6666667 L28.4375,11.1904762 C28.4375,5.01333333 23.5375,0 17.5,0 C11.4625,0 6.5625,5.01333333 6.5625,11.1904762 L10.71875,11.1904762 C10.71875,7.36333333 13.759375,4.25238095 17.5,4.25238095 C21.240625,4.25238095 24.28125,7.36333333 24.28125,11.1904762 L24.28125,15.6666667 L4.375,15.6666667 C1.96875,15.6666667 0,17.6809524 0,20.1428571 L0,42.5238095 C0,44.9857143 1.96875,47 4.375,47 L30.625,47 C33.03125,47 35,44.9857143 35,42.5238095 L35,20.1428571 C35,17.6809524 33.03125,15.6666667 30.625,15.6666667 Z M30.625,42.5238095 L4.375,42.5238095 L4.375,20.1428571 L30.625,20.1428571 L30.625,42.5238095 Z" id="Icon-Shape"></path>
            </g>
        </g>
    </g>
</svg>